<mxfile host="app.diagrams.net" modified="2020-10-10T08:24:51.385Z" agent="5.0 (Windows NT 10.0; Win64; x64) AppleWebKit/537.36 (KHTML, like Gecko) Chrome/85.0.4183.121 Safari/537.36" etag="rgESn2w6bYFcJIIm8-IG" version="13.7.9" type="github">
  <diagram id="YbgjOQ6rQC6J2fL3B7d_" name="Page-1">
    <mxGraphModel dx="1865" dy="580" grid="1" gridSize="10" guides="1" tooltips="1" connect="1" arrows="1" fold="1" page="1" pageScale="1" pageWidth="827" pageHeight="1169" math="0" shadow="0">
      <root>
        <mxCell id="0" />
        <mxCell id="1" parent="0" />
        <mxCell id="kQmFe08d3N0ypHZVlVBw-53" value="Details_order" style="rounded=0;whiteSpace=wrap;html=1;" vertex="1" parent="1">
          <mxGeometry x="600" y="360" width="120" height="40" as="geometry" />
        </mxCell>
        <mxCell id="kQmFe08d3N0ypHZVlVBw-54" value="Ghost_bill" style="rounded=0;whiteSpace=wrap;html=1;" vertex="1" parent="1">
          <mxGeometry x="-120" y="360" width="120" height="40" as="geometry" />
        </mxCell>
        <mxCell id="kQmFe08d3N0ypHZVlVBw-55" value="Customer" style="rounded=0;whiteSpace=wrap;html=1;" vertex="1" parent="1">
          <mxGeometry x="360" y="640" width="120" height="40" as="geometry" />
        </mxCell>
        <mxCell id="kQmFe08d3N0ypHZVlVBw-57" value="Sku" style="rounded=0;whiteSpace=wrap;html=1;" vertex="1" parent="1">
          <mxGeometry x="360" y="360" width="120" height="40" as="geometry" />
        </mxCell>
        <mxCell id="kQmFe08d3N0ypHZVlVBw-58" value="Bill" style="rounded=0;whiteSpace=wrap;html=1;" vertex="1" parent="1">
          <mxGeometry x="120" y="520" width="120" height="40" as="geometry" />
        </mxCell>
        <mxCell id="kQmFe08d3N0ypHZVlVBw-59" value="Order" style="rounded=0;whiteSpace=wrap;html=1;" vertex="1" parent="1">
          <mxGeometry x="600" y="520" width="120" height="40" as="geometry" />
        </mxCell>
        <mxCell id="kQmFe08d3N0ypHZVlVBw-60" value="Warehouse" style="rounded=0;whiteSpace=wrap;html=1;" vertex="1" parent="1">
          <mxGeometry x="600" y="40" width="120" height="40" as="geometry" />
        </mxCell>
        <mxCell id="kQmFe08d3N0ypHZVlVBw-61" value="Goods_delivery_note" style="rounded=0;whiteSpace=wrap;html=1;" vertex="1" parent="1">
          <mxGeometry x="120" y="40" width="120" height="40" as="geometry" />
        </mxCell>
        <mxCell id="kQmFe08d3N0ypHZVlVBw-62" value="Details_bill" style="rounded=0;whiteSpace=wrap;html=1;" vertex="1" parent="1">
          <mxGeometry x="120" y="360" width="120" height="40" as="geometry" />
        </mxCell>
        <mxCell id="kQmFe08d3N0ypHZVlVBw-63" value="&lt;b&gt;&lt;font style=&quot;font-size: 27px&quot;&gt;Shoes&lt;/font&gt;&lt;/b&gt;" style="rounded=0;whiteSpace=wrap;html=1;" vertex="1" parent="1">
          <mxGeometry x="360" y="200" width="120" height="40" as="geometry" />
        </mxCell>
        <mxCell id="kQmFe08d3N0ypHZVlVBw-64" value="Category" style="rounded=0;whiteSpace=wrap;html=1;" vertex="1" parent="1">
          <mxGeometry x="600" y="200" width="120" height="40" as="geometry" />
        </mxCell>
        <mxCell id="kQmFe08d3N0ypHZVlVBw-65" value="Brand" style="rounded=0;whiteSpace=wrap;html=1;" vertex="1" parent="1">
          <mxGeometry x="120" y="200" width="120" height="40" as="geometry" />
        </mxCell>
        <mxCell id="kQmFe08d3N0ypHZVlVBw-66" value="Producer" style="rounded=0;whiteSpace=wrap;html=1;" vertex="1" parent="1">
          <mxGeometry x="360" y="40" width="120" height="40" as="geometry" />
        </mxCell>
        <mxCell id="kQmFe08d3N0ypHZVlVBw-71" style="edgeStyle=orthogonalEdgeStyle;rounded=0;orthogonalLoop=1;jettySize=auto;html=1;exitX=0.5;exitY=1;exitDx=0;exitDy=0;" edge="1" parent="1" source="kQmFe08d3N0ypHZVlVBw-64" target="kQmFe08d3N0ypHZVlVBw-64">
          <mxGeometry relative="1" as="geometry" />
        </mxCell>
        <mxCell id="kQmFe08d3N0ypHZVlVBw-73" value="Có" style="rhombus;whiteSpace=wrap;html=1;" vertex="1" parent="1">
          <mxGeometry x="390" y="120" width="60" height="40" as="geometry" />
        </mxCell>
        <mxCell id="kQmFe08d3N0ypHZVlVBw-75" value="" style="endArrow=none;html=1;exitX=0.5;exitY=0;exitDx=0;exitDy=0;" edge="1" parent="1" source="kQmFe08d3N0ypHZVlVBw-63">
          <mxGeometry width="50" height="50" relative="1" as="geometry">
            <mxPoint x="370" y="210" as="sourcePoint" />
            <mxPoint x="420" y="160" as="targetPoint" />
          </mxGeometry>
        </mxCell>
        <mxCell id="kQmFe08d3N0ypHZVlVBw-76" value="" style="endArrow=none;html=1;exitX=0.5;exitY=0;exitDx=0;exitDy=0;" edge="1" parent="1" source="kQmFe08d3N0ypHZVlVBw-73">
          <mxGeometry width="50" height="50" relative="1" as="geometry">
            <mxPoint x="370" y="130" as="sourcePoint" />
            <mxPoint x="420" y="80" as="targetPoint" />
          </mxGeometry>
        </mxCell>
        <mxCell id="kQmFe08d3N0ypHZVlVBw-77" value="(1,1)" style="text;html=1;align=center;verticalAlign=middle;resizable=0;points=[];autosize=1;" vertex="1" parent="1">
          <mxGeometry x="430" y="90" width="40" height="20" as="geometry" />
        </mxCell>
        <mxCell id="kQmFe08d3N0ypHZVlVBw-78" value="(1,n)" style="text;html=1;align=center;verticalAlign=middle;resizable=0;points=[];autosize=1;" vertex="1" parent="1">
          <mxGeometry x="420" y="170" width="40" height="20" as="geometry" />
        </mxCell>
        <mxCell id="kQmFe08d3N0ypHZVlVBw-80" value="Có" style="rhombus;whiteSpace=wrap;html=1;" vertex="1" parent="1">
          <mxGeometry x="280" y="200" width="40" height="40" as="geometry" />
        </mxCell>
        <mxCell id="kQmFe08d3N0ypHZVlVBw-81" value="" style="endArrow=none;html=1;exitX=1;exitY=0.5;exitDx=0;exitDy=0;" edge="1" parent="1" source="kQmFe08d3N0ypHZVlVBw-80">
          <mxGeometry width="50" height="50" relative="1" as="geometry">
            <mxPoint x="310" y="270" as="sourcePoint" />
            <mxPoint x="360" y="220" as="targetPoint" />
          </mxGeometry>
        </mxCell>
        <mxCell id="kQmFe08d3N0ypHZVlVBw-82" value="" style="endArrow=none;html=1;entryX=0;entryY=0.5;entryDx=0;entryDy=0;" edge="1" parent="1" target="kQmFe08d3N0ypHZVlVBw-80">
          <mxGeometry width="50" height="50" relative="1" as="geometry">
            <mxPoint x="240" y="220" as="sourcePoint" />
            <mxPoint x="270" y="220" as="targetPoint" />
          </mxGeometry>
        </mxCell>
        <mxCell id="kQmFe08d3N0ypHZVlVBw-83" value="(1,1)" style="text;html=1;align=center;verticalAlign=middle;resizable=0;points=[];autosize=1;" vertex="1" parent="1">
          <mxGeometry x="240" y="200" width="40" height="20" as="geometry" />
        </mxCell>
        <mxCell id="kQmFe08d3N0ypHZVlVBw-84" value="(1,n)" style="text;html=1;align=center;verticalAlign=middle;resizable=0;points=[];autosize=1;" vertex="1" parent="1">
          <mxGeometry x="320" y="200" width="40" height="20" as="geometry" />
        </mxCell>
        <mxCell id="kQmFe08d3N0ypHZVlVBw-85" value="Thuộc" style="rhombus;whiteSpace=wrap;html=1;" vertex="1" parent="1">
          <mxGeometry x="520" y="200" width="40" height="40" as="geometry" />
        </mxCell>
        <mxCell id="kQmFe08d3N0ypHZVlVBw-86" value="" style="endArrow=none;html=1;entryX=0;entryY=0.5;entryDx=0;entryDy=0;" edge="1" parent="1" target="kQmFe08d3N0ypHZVlVBw-64">
          <mxGeometry width="50" height="50" relative="1" as="geometry">
            <mxPoint x="560" y="220" as="sourcePoint" />
            <mxPoint x="610" y="170" as="targetPoint" />
          </mxGeometry>
        </mxCell>
        <mxCell id="kQmFe08d3N0ypHZVlVBw-87" value="" style="endArrow=none;html=1;" edge="1" parent="1" target="kQmFe08d3N0ypHZVlVBw-85">
          <mxGeometry width="50" height="50" relative="1" as="geometry">
            <mxPoint x="480" y="220" as="sourcePoint" />
            <mxPoint x="530" y="170" as="targetPoint" />
          </mxGeometry>
        </mxCell>
        <mxCell id="kQmFe08d3N0ypHZVlVBw-88" value="(1,n)" style="text;html=1;align=center;verticalAlign=middle;resizable=0;points=[];autosize=1;" vertex="1" parent="1">
          <mxGeometry x="480" y="200" width="40" height="20" as="geometry" />
        </mxCell>
        <mxCell id="kQmFe08d3N0ypHZVlVBw-89" value="(1,1)" style="text;html=1;align=center;verticalAlign=middle;resizable=0;points=[];autosize=1;" vertex="1" parent="1">
          <mxGeometry x="550" y="200" width="40" height="20" as="geometry" />
        </mxCell>
        <mxCell id="kQmFe08d3N0ypHZVlVBw-92" value="Thuộc" style="rhombus;whiteSpace=wrap;html=1;" vertex="1" parent="1">
          <mxGeometry x="390" y="280" width="60" height="40" as="geometry" />
        </mxCell>
        <mxCell id="kQmFe08d3N0ypHZVlVBw-93" value="" style="endArrow=none;html=1;entryX=0.5;entryY=1;entryDx=0;entryDy=0;" edge="1" parent="1" target="kQmFe08d3N0ypHZVlVBw-92">
          <mxGeometry width="50" height="50" relative="1" as="geometry">
            <mxPoint x="420" y="360" as="sourcePoint" />
            <mxPoint x="470" y="310" as="targetPoint" />
          </mxGeometry>
        </mxCell>
        <mxCell id="kQmFe08d3N0ypHZVlVBw-94" value="" style="endArrow=none;html=1;exitX=0.5;exitY=0;exitDx=0;exitDy=0;" edge="1" parent="1" source="kQmFe08d3N0ypHZVlVBw-92">
          <mxGeometry width="50" height="50" relative="1" as="geometry">
            <mxPoint x="370" y="290" as="sourcePoint" />
            <mxPoint x="420" y="240" as="targetPoint" />
          </mxGeometry>
        </mxCell>
        <mxCell id="kQmFe08d3N0ypHZVlVBw-95" value="(1,n)" style="text;html=1;align=center;verticalAlign=middle;resizable=0;points=[];autosize=1;" vertex="1" parent="1">
          <mxGeometry x="420" y="250" width="40" height="20" as="geometry" />
        </mxCell>
        <mxCell id="kQmFe08d3N0ypHZVlVBw-96" value="(1,1)" style="text;html=1;align=center;verticalAlign=middle;resizable=0;points=[];autosize=1;" vertex="1" parent="1">
          <mxGeometry x="420" y="320" width="40" height="20" as="geometry" />
        </mxCell>
        <mxCell id="kQmFe08d3N0ypHZVlVBw-98" value="Có" style="rhombus;whiteSpace=wrap;html=1;" vertex="1" parent="1">
          <mxGeometry x="250" y="280" width="60" height="50" as="geometry" />
        </mxCell>
        <mxCell id="kQmFe08d3N0ypHZVlVBw-99" value="" style="endArrow=none;html=1;exitX=1;exitY=0;exitDx=0;exitDy=0;" edge="1" parent="1" source="kQmFe08d3N0ypHZVlVBw-98">
          <mxGeometry width="50" height="50" relative="1" as="geometry">
            <mxPoint x="310" y="270" as="sourcePoint" />
            <mxPoint x="360" y="220" as="targetPoint" />
          </mxGeometry>
        </mxCell>
        <mxCell id="kQmFe08d3N0ypHZVlVBw-102" value="" style="endArrow=none;html=1;exitX=0.877;exitY=0.015;exitDx=0;exitDy=0;exitPerimeter=0;" edge="1" parent="1" source="kQmFe08d3N0ypHZVlVBw-62">
          <mxGeometry width="50" height="50" relative="1" as="geometry">
            <mxPoint x="220" y="370" as="sourcePoint" />
            <mxPoint x="270" y="320" as="targetPoint" />
          </mxGeometry>
        </mxCell>
        <mxCell id="kQmFe08d3N0ypHZVlVBw-103" value="" style="endArrow=none;html=1;" edge="1" parent="1">
          <mxGeometry width="50" height="50" relative="1" as="geometry">
            <mxPoint x="180" y="440" as="sourcePoint" />
            <mxPoint x="180" y="400" as="targetPoint" />
          </mxGeometry>
        </mxCell>
        <mxCell id="kQmFe08d3N0ypHZVlVBw-104" value="Có" style="rhombus;whiteSpace=wrap;html=1;" vertex="1" parent="1">
          <mxGeometry x="150" y="440" width="60" height="40" as="geometry" />
        </mxCell>
        <mxCell id="kQmFe08d3N0ypHZVlVBw-105" value="" style="endArrow=none;html=1;" edge="1" parent="1">
          <mxGeometry width="50" height="50" relative="1" as="geometry">
            <mxPoint x="180" y="520" as="sourcePoint" />
            <mxPoint x="180" y="480" as="targetPoint" />
          </mxGeometry>
        </mxCell>
        <mxCell id="kQmFe08d3N0ypHZVlVBw-106" value="(1,1)" style="text;html=1;align=center;verticalAlign=middle;resizable=0;points=[];autosize=1;" vertex="1" parent="1">
          <mxGeometry x="320" y="260" width="40" height="20" as="geometry" />
        </mxCell>
        <mxCell id="kQmFe08d3N0ypHZVlVBw-107" value="(1,n)" style="text;html=1;align=center;verticalAlign=middle;resizable=0;points=[];autosize=1;" vertex="1" parent="1">
          <mxGeometry x="240" y="340" width="40" height="20" as="geometry" />
        </mxCell>
        <mxCell id="kQmFe08d3N0ypHZVlVBw-108" value="(1,n)" style="text;html=1;align=center;verticalAlign=middle;resizable=0;points=[];autosize=1;" vertex="1" parent="1">
          <mxGeometry x="180" y="410" width="40" height="20" as="geometry" />
        </mxCell>
        <mxCell id="kQmFe08d3N0ypHZVlVBw-109" value="(1,1)" style="text;html=1;align=center;verticalAlign=middle;resizable=0;points=[];autosize=1;" vertex="1" parent="1">
          <mxGeometry x="180" y="490" width="40" height="20" as="geometry" />
        </mxCell>
        <mxCell id="kQmFe08d3N0ypHZVlVBw-110" value="Có" style="rhombus;whiteSpace=wrap;html=1;" vertex="1" parent="1">
          <mxGeometry x="40" y="360" width="40" height="40" as="geometry" />
        </mxCell>
        <mxCell id="kQmFe08d3N0ypHZVlVBw-111" value="" style="endArrow=none;html=1;entryX=0;entryY=0.5;entryDx=0;entryDy=0;" edge="1" parent="1" target="kQmFe08d3N0ypHZVlVBw-62">
          <mxGeometry width="50" height="50" relative="1" as="geometry">
            <mxPoint x="80" y="380" as="sourcePoint" />
            <mxPoint x="130" y="330" as="targetPoint" />
          </mxGeometry>
        </mxCell>
        <mxCell id="kQmFe08d3N0ypHZVlVBw-112" value="" style="endArrow=none;html=1;entryX=0;entryY=0.5;entryDx=0;entryDy=0;" edge="1" parent="1" target="kQmFe08d3N0ypHZVlVBw-110">
          <mxGeometry width="50" height="50" relative="1" as="geometry">
            <mxPoint y="380" as="sourcePoint" />
            <mxPoint x="50" y="330" as="targetPoint" />
          </mxGeometry>
        </mxCell>
        <mxCell id="kQmFe08d3N0ypHZVlVBw-113" value="(1,n)" style="text;html=1;align=center;verticalAlign=middle;resizable=0;points=[];autosize=1;" vertex="1" parent="1">
          <mxGeometry x="80" y="360" width="40" height="20" as="geometry" />
        </mxCell>
        <mxCell id="kQmFe08d3N0ypHZVlVBw-114" value="(1,1)" style="text;html=1;align=center;verticalAlign=middle;resizable=0;points=[];autosize=1;" vertex="1" parent="1">
          <mxGeometry y="360" width="40" height="20" as="geometry" />
        </mxCell>
        <mxCell id="kQmFe08d3N0ypHZVlVBw-115" value="Có" style="rhombus;whiteSpace=wrap;html=1;" vertex="1" parent="1">
          <mxGeometry x="630" y="440" width="60" height="40" as="geometry" />
        </mxCell>
        <mxCell id="kQmFe08d3N0ypHZVlVBw-116" value="Có" style="rhombus;whiteSpace=wrap;html=1;" vertex="1" parent="1">
          <mxGeometry x="520" y="280" width="40" height="40" as="geometry" />
        </mxCell>
        <mxCell id="kQmFe08d3N0ypHZVlVBw-117" value="" style="endArrow=none;html=1;exitX=0;exitY=0;exitDx=0;exitDy=0;" edge="1" parent="1" source="kQmFe08d3N0ypHZVlVBw-53">
          <mxGeometry width="50" height="50" relative="1" as="geometry">
            <mxPoint x="500" y="360" as="sourcePoint" />
            <mxPoint x="550" y="310" as="targetPoint" />
          </mxGeometry>
        </mxCell>
        <mxCell id="kQmFe08d3N0ypHZVlVBw-118" value="" style="endArrow=none;html=1;" edge="1" parent="1" source="kQmFe08d3N0ypHZVlVBw-116">
          <mxGeometry width="50" height="50" relative="1" as="geometry">
            <mxPoint x="430" y="270" as="sourcePoint" />
            <mxPoint x="480" y="220" as="targetPoint" />
          </mxGeometry>
        </mxCell>
        <mxCell id="kQmFe08d3N0ypHZVlVBw-119" value="" style="endArrow=none;html=1;exitX=0.5;exitY=0;exitDx=0;exitDy=0;" edge="1" parent="1" source="kQmFe08d3N0ypHZVlVBw-59">
          <mxGeometry width="50" height="50" relative="1" as="geometry">
            <mxPoint x="610" y="530" as="sourcePoint" />
            <mxPoint x="660" y="480" as="targetPoint" />
          </mxGeometry>
        </mxCell>
        <mxCell id="kQmFe08d3N0ypHZVlVBw-120" value="" style="endArrow=none;html=1;exitX=0.5;exitY=0;exitDx=0;exitDy=0;" edge="1" parent="1" source="kQmFe08d3N0ypHZVlVBw-115">
          <mxGeometry width="50" height="50" relative="1" as="geometry">
            <mxPoint x="610" y="450" as="sourcePoint" />
            <mxPoint x="660" y="400" as="targetPoint" />
          </mxGeometry>
        </mxCell>
        <mxCell id="kQmFe08d3N0ypHZVlVBw-121" value="(1,1)" style="text;html=1;align=center;verticalAlign=middle;resizable=0;points=[];autosize=1;" vertex="1" parent="1">
          <mxGeometry x="510" y="250" width="40" height="20" as="geometry" />
        </mxCell>
        <mxCell id="kQmFe08d3N0ypHZVlVBw-122" value="(1,n)" style="text;html=1;align=center;verticalAlign=middle;resizable=0;points=[];autosize=1;" vertex="1" parent="1">
          <mxGeometry x="570" y="320" width="40" height="20" as="geometry" />
        </mxCell>
        <mxCell id="kQmFe08d3N0ypHZVlVBw-123" value="(1,n)" style="text;html=1;align=center;verticalAlign=middle;resizable=0;points=[];autosize=1;" vertex="1" parent="1">
          <mxGeometry x="660" y="410" width="40" height="20" as="geometry" />
        </mxCell>
        <mxCell id="kQmFe08d3N0ypHZVlVBw-124" value="(1,1)" style="text;html=1;align=center;verticalAlign=middle;resizable=0;points=[];autosize=1;" vertex="1" parent="1">
          <mxGeometry x="660" y="490" width="40" height="20" as="geometry" />
        </mxCell>
        <mxCell id="kQmFe08d3N0ypHZVlVBw-126" value="Có" style="rhombus;whiteSpace=wrap;html=1;" vertex="1" parent="1">
          <mxGeometry x="260" y="580" width="40" height="40" as="geometry" />
        </mxCell>
        <mxCell id="kQmFe08d3N0ypHZVlVBw-127" value="Có" style="rhombus;whiteSpace=wrap;html=1;" vertex="1" parent="1">
          <mxGeometry x="520" y="580" width="40" height="40" as="geometry" />
        </mxCell>
        <mxCell id="kQmFe08d3N0ypHZVlVBw-128" value="" style="endArrow=none;html=1;entryX=0;entryY=0;entryDx=0;entryDy=0;" edge="1" parent="1" target="kQmFe08d3N0ypHZVlVBw-126">
          <mxGeometry width="50" height="50" relative="1" as="geometry">
            <mxPoint x="240" y="560" as="sourcePoint" />
            <mxPoint x="290" y="510" as="targetPoint" />
          </mxGeometry>
        </mxCell>
        <mxCell id="kQmFe08d3N0ypHZVlVBw-132" value="" style="endArrow=none;html=1;" edge="1" parent="1">
          <mxGeometry width="50" height="50" relative="1" as="geometry">
            <mxPoint x="550" y="590" as="sourcePoint" />
            <mxPoint x="600" y="540" as="targetPoint" />
          </mxGeometry>
        </mxCell>
        <mxCell id="kQmFe08d3N0ypHZVlVBw-133" value="" style="endArrow=none;html=1;" edge="1" parent="1">
          <mxGeometry width="50" height="50" relative="1" as="geometry">
            <mxPoint x="480" y="660" as="sourcePoint" />
            <mxPoint x="530" y="610" as="targetPoint" />
          </mxGeometry>
        </mxCell>
        <mxCell id="kQmFe08d3N0ypHZVlVBw-134" value="" style="endArrow=none;html=1;entryX=0;entryY=0.5;entryDx=0;entryDy=0;" edge="1" parent="1" target="kQmFe08d3N0ypHZVlVBw-55">
          <mxGeometry width="50" height="50" relative="1" as="geometry">
            <mxPoint x="290" y="610" as="sourcePoint" />
            <mxPoint x="340" y="560" as="targetPoint" />
          </mxGeometry>
        </mxCell>
        <mxCell id="kQmFe08d3N0ypHZVlVBw-135" value="(1,1)" style="text;html=1;align=center;verticalAlign=middle;resizable=0;points=[];autosize=1;" vertex="1" parent="1">
          <mxGeometry x="300" y="610" width="40" height="20" as="geometry" />
        </mxCell>
        <mxCell id="kQmFe08d3N0ypHZVlVBw-136" value="(1,1)" style="text;html=1;align=center;verticalAlign=middle;resizable=0;points=[];autosize=1;" vertex="1" parent="1">
          <mxGeometry x="470" y="610" width="40" height="20" as="geometry" />
        </mxCell>
        <mxCell id="kQmFe08d3N0ypHZVlVBw-137" value="(1,n)" style="text;html=1;align=center;verticalAlign=middle;resizable=0;points=[];autosize=1;" vertex="1" parent="1">
          <mxGeometry x="540" y="540" width="40" height="20" as="geometry" />
        </mxCell>
        <mxCell id="kQmFe08d3N0ypHZVlVBw-138" value="(1,n)" style="text;html=1;align=center;verticalAlign=middle;resizable=0;points=[];autosize=1;" vertex="1" parent="1">
          <mxGeometry x="240" y="550" width="40" height="20" as="geometry" />
        </mxCell>
        <mxCell id="kQmFe08d3N0ypHZVlVBw-139" value="Goods_delivery" style="rounded=0;whiteSpace=wrap;html=1;" vertex="1" parent="1">
          <mxGeometry x="-120" y="40" width="120" height="40" as="geometry" />
        </mxCell>
        <mxCell id="kQmFe08d3N0ypHZVlVBw-140" value="Thuộc" style="rhombus;whiteSpace=wrap;html=1;" vertex="1" parent="1">
          <mxGeometry x="510" y="100" width="50" height="50" as="geometry" />
        </mxCell>
        <mxCell id="kQmFe08d3N0ypHZVlVBw-141" value="Thuộc" style="rhombus;whiteSpace=wrap;html=1;" vertex="1" parent="1">
          <mxGeometry x="270" y="100" width="50" height="50" as="geometry" />
        </mxCell>
        <mxCell id="kQmFe08d3N0ypHZVlVBw-142" value="Có" style="rhombus;whiteSpace=wrap;html=1;" vertex="1" parent="1">
          <mxGeometry x="40" y="40" width="40" height="40" as="geometry" />
        </mxCell>
        <mxCell id="kQmFe08d3N0ypHZVlVBw-143" value="" style="endArrow=none;html=1;" edge="1" parent="1">
          <mxGeometry width="50" height="50" relative="1" as="geometry">
            <mxPoint x="550" y="110" as="sourcePoint" />
            <mxPoint x="600" y="60" as="targetPoint" />
          </mxGeometry>
        </mxCell>
        <mxCell id="kQmFe08d3N0ypHZVlVBw-144" value="" style="endArrow=none;html=1;entryX=0;entryY=1;entryDx=0;entryDy=0;" edge="1" parent="1" target="kQmFe08d3N0ypHZVlVBw-140">
          <mxGeometry width="50" height="50" relative="1" as="geometry">
            <mxPoint x="460" y="200" as="sourcePoint" />
            <mxPoint x="510" y="150" as="targetPoint" />
          </mxGeometry>
        </mxCell>
        <mxCell id="kQmFe08d3N0ypHZVlVBw-145" value="" style="endArrow=none;html=1;entryX=0;entryY=0;entryDx=0;entryDy=0;" edge="1" parent="1" source="kQmFe08d3N0ypHZVlVBw-141" target="kQmFe08d3N0ypHZVlVBw-63">
          <mxGeometry width="50" height="50" relative="1" as="geometry">
            <mxPoint x="310" y="140" as="sourcePoint" />
            <mxPoint x="360" y="90" as="targetPoint" />
          </mxGeometry>
        </mxCell>
        <mxCell id="kQmFe08d3N0ypHZVlVBw-146" value="" style="endArrow=none;html=1;entryX=0;entryY=0;entryDx=0;entryDy=0;" edge="1" parent="1" target="kQmFe08d3N0ypHZVlVBw-141">
          <mxGeometry width="50" height="50" relative="1" as="geometry">
            <mxPoint x="240" y="80" as="sourcePoint" />
            <mxPoint x="290" y="30" as="targetPoint" />
          </mxGeometry>
        </mxCell>
        <mxCell id="kQmFe08d3N0ypHZVlVBw-147" value="" style="endArrow=none;html=1;entryX=0;entryY=0.5;entryDx=0;entryDy=0;" edge="1" parent="1" target="kQmFe08d3N0ypHZVlVBw-61">
          <mxGeometry width="50" height="50" relative="1" as="geometry">
            <mxPoint x="80" y="60" as="sourcePoint" />
            <mxPoint x="130" y="10" as="targetPoint" />
          </mxGeometry>
        </mxCell>
        <mxCell id="kQmFe08d3N0ypHZVlVBw-148" value="" style="endArrow=none;html=1;entryX=0;entryY=0.5;entryDx=0;entryDy=0;" edge="1" parent="1" target="kQmFe08d3N0ypHZVlVBw-142">
          <mxGeometry width="50" height="50" relative="1" as="geometry">
            <mxPoint y="60" as="sourcePoint" />
            <mxPoint x="50" y="10" as="targetPoint" />
          </mxGeometry>
        </mxCell>
        <mxCell id="kQmFe08d3N0ypHZVlVBw-149" value="(1,1)" style="text;html=1;align=center;verticalAlign=middle;resizable=0;points=[];autosize=1;" vertex="1" parent="1">
          <mxGeometry x="460" y="150" width="40" height="20" as="geometry" />
        </mxCell>
        <mxCell id="kQmFe08d3N0ypHZVlVBw-150" value="(1,n)" style="text;html=1;align=center;verticalAlign=middle;resizable=0;points=[];autosize=1;" vertex="1" parent="1">
          <mxGeometry x="540" y="70" width="40" height="20" as="geometry" />
        </mxCell>
        <mxCell id="kQmFe08d3N0ypHZVlVBw-151" value="(1,1)" style="text;html=1;align=center;verticalAlign=middle;resizable=0;points=[];autosize=1;" vertex="1" parent="1">
          <mxGeometry x="320" y="150" width="40" height="20" as="geometry" />
        </mxCell>
        <mxCell id="kQmFe08d3N0ypHZVlVBw-152" value="(1,n)" style="text;html=1;align=center;verticalAlign=middle;resizable=0;points=[];autosize=1;" vertex="1" parent="1">
          <mxGeometry x="250" y="70" width="40" height="20" as="geometry" />
        </mxCell>
        <mxCell id="kQmFe08d3N0ypHZVlVBw-153" value="(1,n)" style="text;html=1;align=center;verticalAlign=middle;resizable=0;points=[];autosize=1;" vertex="1" parent="1">
          <mxGeometry x="70" y="30" width="40" height="20" as="geometry" />
        </mxCell>
        <mxCell id="kQmFe08d3N0ypHZVlVBw-154" value="(1,1)" style="text;html=1;align=center;verticalAlign=middle;resizable=0;points=[];autosize=1;" vertex="1" parent="1">
          <mxGeometry y="30" width="40" height="20" as="geometry" />
        </mxCell>
      </root>
    </mxGraphModel>
  </diagram>
</mxfile>
